<svg xmlns="http://www.w3.org/2000/svg" viewBox="0 0 779.2 822.08">
<path id="top" class="cls-1"
d="M749.2,376.43V792.08H527.66a8,8,0,0,1-8-8V568c0-166-109.54-300.6-244.66-300.6a201.91,201.91,0,0,0-65.45,10.9,8,8,0,0,1-10.3-9.66c13.89-52.34,37.67-99.17,68.64-137.2C318.91,68.78,389.39,30,467.26,30,623,30,749.2,185.1,749.2,376.43Z"
style="fill:none; stroke:#231f20; stroke-width: 60px;"/>
<path id="middle" class="cls-2" d="M519.66,568V678.68A8,8,0,0,1,508.35,686L267.11,576.49A138.22,138.22,0,0,1,185.32,450.3V376.43a420.1,420.1,0,0,1,9.35-88.68,8,8,0,0,1,4.88-5.72A202.56,202.56,0,0,1,275,267.43C410.12,267.43,519.66,402,519.66,568Z"
style="fill:none; stroke:#231f20; stroke-width: 60px;"/>
<path id="bottom" class="cls-3" d="M519.66,696.25V784a8,8,0,0,1-8,8L239,790.67c-42.41-.21-84.16-12.53-119-36.71a206.75,206.75,0,0,1-40.52-37c-52.76-62.78-50-133.92-49.13-149,0-125,62.12-232.2,150.49-277.5a8,8,0,0,1,11.57,8.53,421.83,421.83,0,0,0-7.08,77.37V450.3a138.22,138.22,0,0,0,81.79,126.19L515,689A8,8,0,0,1,519.66,696.25Z"
style="fill:none; stroke:#231f20; stroke-width: 60px;"/>
</svg>
