<svg xmlns="http://www.w3.org/2000/svg" viewBox="0 0 779.2 822.08">
<g id="canvas">
  <mask id="mask-2" fill="white">
      <use xlink:href="#path-1"></use>
  </mask>
  <g id="canvasFill">
      <use fill="black" fill-opacity="1" filter="url(#filter-3)" xlink:href="#path-1"></use>
      <use fill="#FBFBFB" fill-rule="evenodd" xlink:href="#path-1"></use>
  </g>
  <g id="pattern" mask="url(#mask-2)" opacity="0.3" stroke="#C2B49A" stroke-linecap="round" stroke-width="0.5">
      <g transform="translate(0.107376, 0.108020)">
          <line x1="-7.39149232e-14" y1="258.776481" x2="259.851767" y2="258.776481" id="Stroke-3"></line>
          <line x1="-7.39149232e-14" y1="245.891344" x2="259.851767" y2="245.891344" id="Stroke-6"></line>
          <line x1="-7.39149232e-14" y1="233.006207" x2="259.851767" y2="233.006207" id="Stroke-9"></line>
          <line x1="-7.39149232e-14" y1="220.12107" x2="259.851767" y2="220.12107" id="Stroke-12"></line>
          <line x1="-7.39149232e-14" y1="207.235933" x2="259.851767" y2="207.235933" id="Stroke-15"></line>
          <line x1="-7.39149232e-14" y1="194.350796" x2="259.851767" y2="194.350796" id="Stroke-18"></line>
          <line x1="-7.39149232e-14" y1="181.465659" x2="259.851767" y2="181.465659" id="Stroke-21"></line>
          <line x1="-7.39149232e-14" y1="168.580522" x2="259.851767" y2="168.580522" id="Stroke-24"></line>
          <line x1="-7.39149232e-14" y1="155.695385" x2="259.851767" y2="155.695385" id="Stroke-27"></line>
          <line x1="-7.39149232e-14" y1="142.810248" x2="259.851767" y2="142.810248" id="Stroke-30"></line>
          <line x1="-7.39149232e-14" y1="129.925111" x2="259.851767" y2="129.925111" id="Stroke-33"></line>
          <line x1="-7.39149232e-14" y1="117.039973" x2="259.851767" y2="117.039973" id="Stroke-36"></line>
          <line x1="-7.39149232e-14" y1="104.154836" x2="259.851767" y2="104.154836" id="Stroke-39"></line>
          <line x1="-7.39149232e-14" y1="91.2696993" x2="259.851767" y2="91.2696993" id="Stroke-42"></line>
          <line x1="-7.39149232e-14" y1="78.3845623" x2="259.851767" y2="78.3845623" id="Stroke-45"></line>
          <line x1="-7.39149232e-14" y1="65.4994252" x2="259.851767" y2="65.4994252" id="Stroke-48"></line>
          <line x1="-7.39149232e-14" y1="52.6142882" x2="259.851767" y2="52.6142882" id="Stroke-51"></line>
          <line x1="-7.39149232e-14" y1="39.7291511" x2="259.851767" y2="39.7291511" id="Stroke-54"></line>
          <line x1="-7.39149232e-14" y1="26.8440141" x2="259.851767" y2="26.8440141" id="Stroke-57"></line>
          <line x1="-7.39149232e-14" y1="13.958877" x2="259.851767" y2="13.958877" id="Stroke-60"></line>
          <line x1="-7.39149232e-14" y1="1.07373995" x2="259.851767" y2="1.07373995" id="Stroke-63"></line>
          <line x1="258.776503" y1="259.851767" x2="258.776503" y2="-2.46383077e-14" id="Stroke-66"></line>
          <line x1="245.891365" y1="259.851767" x2="245.891365" y2="-2.46383077e-14" id="Stroke-69"></line>
          <line x1="233.006228" y1="259.851767" x2="233.006228" y2="-2.46383077e-14" id="Stroke-72"></line>
          <line x1="220.121091" y1="259.851767" x2="220.121091" y2="-2.46383077e-14" id="Stroke-75"></line>
          <line x1="207.235954" y1="259.851767" x2="207.235954" y2="-2.46383077e-14" id="Stroke-78"></line>
          <line x1="194.350817" y1="259.851767" x2="194.350817" y2="-2.46383077e-14" id="Stroke-81"></line>
          <line x1="181.46568" y1="259.851767" x2="181.46568" y2="-2.46383077e-14" id="Stroke-84"></line>
          <line x1="168.580543" y1="259.851767" x2="168.580543" y2="-2.46383077e-14" id="Stroke-87"></line>
          <line x1="155.695406" y1="259.851767" x2="155.695406" y2="-2.46383077e-14" id="Stroke-90"></line>
          <line x1="142.810269" y1="259.851767" x2="142.810269" y2="-2.46383077e-14" id="Stroke-93"></line>
          <line x1="129.925132" y1="259.851767" x2="129.925132" y2="-2.46383077e-14" id="Stroke-96"></line>
          <line x1="117.039995" y1="259.851767" x2="117.039995" y2="-2.46383077e-14" id="Stroke-99"></line>
          <line x1="104.154858" y1="259.851767" x2="104.154858" y2="-2.46383077e-14" id="Stroke-102"></line>
          <line x1="91.2697208" y1="259.851767" x2="91.2697208" y2="-2.46383077e-14" id="Stroke-105"></line>
          <line x1="78.3845838" y1="259.851767" x2="78.3845838" y2="-2.46383077e-14" id="Stroke-108"></line>
          <line x1="65.4994467" y1="259.851767" x2="65.4994467" y2="-2.46383077e-14" id="Stroke-111"></line>
          <line x1="52.6143096" y1="259.851767" x2="52.6143096" y2="-2.46383077e-14" id="Stroke-114"></line>
          <line x1="39.7291726" y1="259.851767" x2="39.7291726" y2="-2.46383077e-14" id="Stroke-117"></line>
          <line x1="26.8440355" y1="259.851767" x2="26.8440355" y2="-2.46383077e-14" id="Stroke-120"></line>
          <line x1="13.9588985" y1="259.851767" x2="13.9588985" y2="-2.46383077e-14" id="Stroke-123"></line>
          <line x1="1.07376142" y1="259.851767" x2="1.07376142" y2="-2.46383077e-14" id="Stroke-126"></line>
      </g>
  </g>
</g>
  

<path id="background" class="cls-2" d="M519.66,568V678.68A8,8,0,0,1,508.35,686L267.11,576.49A138.22,138.22,0,0,1,185.32,450.3V376.43a420.1,420.1,0,0,1,9.35-88.68,8,8,0,0,1,4.88-5.72A202.56,202.56,0,0,1,275,267.43C410.12,267.43,519.66,402,519.66,568Z"
style="fill:#fefefe; stroke:#a2a1a1; stroke-width: 60px;"/>
<path id="background" class="cls-1"
d="M749.2,376.43V792.08H527.66a8,8,0,0,1-8-8V568c0-166-109.54-300.6-244.66-300.6a201.91,201.91,0,0,0-65.45,10.9,8,8,0,0,1-10.3-9.66c13.89-52.34,37.67-99.17,68.64-137.2C318.91,68.78,389.39,30,467.26,30,623,30,749.2,185.1,749.2,376.43Z"
style="fill:#fefefe; stroke:#a2a1a1; stroke-width: 60px;"/>
<path id="background" class="cls-3" d="M519.66,696.25V784a8,8,0,0,1-8,8L239,790.67c-42.41-.21-84.16-12.53-119-36.71a206.75,206.75,0,0,1-40.52-37c-52.76-62.78-50-133.92-49.13-149,0-125,62.12-232.2,150.49-277.5a8,8,0,0,1,11.57,8.53,421.83,421.83,0,0,0-7.08,77.37V450.3a138.22,138.22,0,0,0,81.79,126.19L515,689A8,8,0,0,1,519.66,696.25Z"
style="fill:#fefefe; stroke:#a2a1a1; stroke-width: 60px;"/>
  
<g id="Layer_2" data-name="Layer 2">
  <g id="logoShape">
    <g id="top">
    <path id="top-filling" style="fill:#fefefe;" class="cls-1" d="M549.64,762.08V568c0-87.17-27.84-169.38-78.39-231.49-25.07-30.81-54.41-55.07-87.2-72.11-34.48-17.91-71.17-27-109.07-27a230.72,230.72,0,0,0-35.05,2.67c12.71-33.22,30.09-63.75,51.21-89.69C338.59,92.11,401.13,60,467.24,60c138.93,0,252,142,252,316.43V762.08Z"/>
    <path id="top-outline" style="fill:#231f20;" class="cls-2" d="M779.19,822.08H527.64a38,38,0,0,1-38-38V568c0-149.21-96.29-270.6-214.66-270.6a172.43,172.43,0,0,0-55.76,9.29,38,38,0,0,1-49-45.75c14.71-55.42,40.43-106.75,74.37-148.44,28.49-35,61.82-62.57,99.05-81.92C382.73,10.3,424.32,0,467.24,0s84.5,10.3,123.58,30.6c37.23,19.35,70.55,46.92,99,81.93,57.6,70.77,89.32,164.49,89.32,263.9Zm-229.55-60H719.19V376.43C719.19,202,606.17,60,467.24,60c-66.11,0-128.65,32.11-176.1,90.41-21.12,25.94-38.5,56.47-51.21,89.69A230.72,230.72,0,0,1,275,237.43c37.9,0,74.59,9.09,109.07,27,32.79,17,62.13,41.3,87.2,72.11C521.8,398.65,549.64,480.86,549.64,568Z"/>
    </g>
    <g id="middle">
    <path id="middle-filling" style="fill:#fefefe;" data-name="filling" class="cls-1" d="M279.34,549.1a108.37,108.37,0,0,1-64-98.8V376.43a393.93,393.93,0,0,1,6.32-70.51A172,172,0,0,1,275,297.43c118.37,0,214.66,121.39,214.66,270.6v76.5Z"/>
    <path id="middle-outline" style="fill:#231f20;" data-name="outline" class="cls-2" d="M511.66,716.7a38,38,0,0,1-15.72-3.42l-121.16-55-120-54.46A168.45,168.45,0,0,1,155.3,450.3V376.43a451.52,451.52,0,0,1,10-95,37.93,37.93,0,0,1,23.07-27.25A232.52,232.52,0,0,1,275,237.43c37.9,0,74.59,9.09,109.07,27,32.79,17,62.13,41.3,87.2,72.11C521.8,398.65,549.64,480.86,549.64,568V678.68a38,38,0,0,1-38,38Zm-290-410.78a393.93,393.93,0,0,0-6.32,70.51V450.3a108.37,108.37,0,0,0,64,98.8l.15.07,120.09,54.49,90.06,40.87V568c0-149.21-96.29-270.6-214.66-270.6A172,172,0,0,0,221.62,305.92Z"/>
    </g>
    <g id="bottom">
    <path id="bottom-filling" style="fill:#fefefe;" data-name="filling" class="cls-1" d="M239.11,760.67c-37.47-.18-72.75-11-102-31.35a177.88,177.88,0,0,1-34.66-31.61C60.46,647.78,59,591.64,60.27,569.82l0-1.79c0-55.42,13.27-108.72,38.37-154.13,15.7-28.42,35.33-52.56,57.87-71.41q-1.26,16.89-1.26,33.94V450.3a168.43,168.43,0,0,0,99.46,153.53L489.64,710.42v51.51Z"/>
    <path id="bottom-outline" style="fill:#231f20;" data-name="outline" class="cls-2" d="M511.65,822h-.2l-272.64-1.37c-49.65-.24-96.66-14.79-135.94-42.07a237.33,237.33,0,0,1-46.38-42.29C1.22,670.55-1.31,596.78.32,567.15.61,434.65,66,315.66,167.13,263.84a38,38,0,0,1,54.74,40.71,393.38,393.38,0,0,0-6.57,71.88V450.3a108.37,108.37,0,0,0,64,98.8l.15.07,122,55.36,125.86,57.12a38.06,38.06,0,0,1,22.29,34.6V784a38,38,0,0,1-38,38ZM156.56,342.49c-22.54,18.85-42.17,43-57.87,71.41C73.59,459.31,60.32,512.61,60.32,568v.89l0,.9c-1.3,21.82.19,78,42.15,127.89a177.88,177.88,0,0,0,34.66,31.61c29.28,20.33,64.56,31.17,102,31.35l250.53,1.26V710.42L376.7,659.17,254.77,603.84A168.43,168.43,0,0,1,155.3,450.3V376.43Q155.3,359.41,156.56,342.49Z"/>
    </g>
  </g>
</g>
</svg>

