<?xml version="1.0" encoding="UTF-8"?>
<svg width="292px" height="292px" viewBox="0 0 292 292" version="1.1" xmlns="http://www.w3.org/2000/svg" xmlns:xlink="http://www.w3.org/1999/xlink">
    <title>artboard</title>
    <g id="Page-1" stroke="none" stroke-width="1" fill="none" fill-rule="evenodd">
        <g id="iPhone-12-Pro" transform="translate(-14.000000, -197.000000)">
            <rect id="bg" fill="#FEFEFE" x="0" y="0" width="320" height="874"></rect>
            <g id="artboard" transform="translate(30.000000, 213.000000)">
                <g id="canvas">
                    <mask id="mask-2" fill="white">
                        <use xlink:href="#path-1"></use>
                    </mask>
                    <g id="canvasFill">
                        <use fill="black" fill-opacity="1" filter="url(#filter-3)" xlink:href="#path-1"></use>
                        <use fill="#FBFBFB" fill-rule="evenodd" xlink:href="#path-1"></use>
                    </g>
                    <g id="pattern" mask="url(#mask-2)" opacity="0.3" stroke="#C2B49A" stroke-linecap="round" stroke-width="0.5">
                        <g transform="translate(0.107376, 0.108020)">
                            <line x1="-7.39149232e-14" y1="258.776481" x2="259.851767" y2="258.776481" id="Stroke-3"></line>
                            <line x1="-7.39149232e-14" y1="245.891344" x2="259.851767" y2="245.891344" id="Stroke-6"></line>
                            <line x1="-7.39149232e-14" y1="233.006207" x2="259.851767" y2="233.006207" id="Stroke-9"></line>
                            <line x1="-7.39149232e-14" y1="220.12107" x2="259.851767" y2="220.12107" id="Stroke-12"></line>
                            <line x1="-7.39149232e-14" y1="207.235933" x2="259.851767" y2="207.235933" id="Stroke-15"></line>
                            <line x1="-7.39149232e-14" y1="194.350796" x2="259.851767" y2="194.350796" id="Stroke-18"></line>
                            <line x1="-7.39149232e-14" y1="181.465659" x2="259.851767" y2="181.465659" id="Stroke-21"></line>
                            <line x1="-7.39149232e-14" y1="168.580522" x2="259.851767" y2="168.580522" id="Stroke-24"></line>
                            <line x1="-7.39149232e-14" y1="155.695385" x2="259.851767" y2="155.695385" id="Stroke-27"></line>
                            <line x1="-7.39149232e-14" y1="142.810248" x2="259.851767" y2="142.810248" id="Stroke-30"></line>
                            <line x1="-7.39149232e-14" y1="129.925111" x2="259.851767" y2="129.925111" id="Stroke-33"></line>
                            <line x1="-7.39149232e-14" y1="117.039973" x2="259.851767" y2="117.039973" id="Stroke-36"></line>
                            <line x1="-7.39149232e-14" y1="104.154836" x2="259.851767" y2="104.154836" id="Stroke-39"></line>
                            <line x1="-7.39149232e-14" y1="91.2696993" x2="259.851767" y2="91.2696993" id="Stroke-42"></line>
                            <line x1="-7.39149232e-14" y1="78.3845623" x2="259.851767" y2="78.3845623" id="Stroke-45"></line>
                            <line x1="-7.39149232e-14" y1="65.4994252" x2="259.851767" y2="65.4994252" id="Stroke-48"></line>
                            <line x1="-7.39149232e-14" y1="52.6142882" x2="259.851767" y2="52.6142882" id="Stroke-51"></line>
                            <line x1="-7.39149232e-14" y1="39.7291511" x2="259.851767" y2="39.7291511" id="Stroke-54"></line>
                            <line x1="-7.39149232e-14" y1="26.8440141" x2="259.851767" y2="26.8440141" id="Stroke-57"></line>
                            <line x1="-7.39149232e-14" y1="13.958877" x2="259.851767" y2="13.958877" id="Stroke-60"></line>
                            <line x1="-7.39149232e-14" y1="1.07373995" x2="259.851767" y2="1.07373995" id="Stroke-63"></line>
                            <line x1="258.776503" y1="259.851767" x2="258.776503" y2="-2.46383077e-14" id="Stroke-66"></line>
                            <line x1="245.891365" y1="259.851767" x2="245.891365" y2="-2.46383077e-14" id="Stroke-69"></line>
                            <line x1="233.006228" y1="259.851767" x2="233.006228" y2="-2.46383077e-14" id="Stroke-72"></line>
                            <line x1="220.121091" y1="259.851767" x2="220.121091" y2="-2.46383077e-14" id="Stroke-75"></line>
                            <line x1="207.235954" y1="259.851767" x2="207.235954" y2="-2.46383077e-14" id="Stroke-78"></line>
                            <line x1="194.350817" y1="259.851767" x2="194.350817" y2="-2.46383077e-14" id="Stroke-81"></line>
                            <line x1="181.46568" y1="259.851767" x2="181.46568" y2="-2.46383077e-14" id="Stroke-84"></line>
                            <line x1="168.580543" y1="259.851767" x2="168.580543" y2="-2.46383077e-14" id="Stroke-87"></line>
                            <line x1="155.695406" y1="259.851767" x2="155.695406" y2="-2.46383077e-14" id="Stroke-90"></line>
                            <line x1="142.810269" y1="259.851767" x2="142.810269" y2="-2.46383077e-14" id="Stroke-93"></line>
                            <line x1="129.925132" y1="259.851767" x2="129.925132" y2="-2.46383077e-14" id="Stroke-96"></line>
                            <line x1="117.039995" y1="259.851767" x2="117.039995" y2="-2.46383077e-14" id="Stroke-99"></line>
                            <line x1="104.154858" y1="259.851767" x2="104.154858" y2="-2.46383077e-14" id="Stroke-102"></line>
                            <line x1="91.2697208" y1="259.851767" x2="91.2697208" y2="-2.46383077e-14" id="Stroke-105"></line>
                            <line x1="78.3845838" y1="259.851767" x2="78.3845838" y2="-2.46383077e-14" id="Stroke-108"></line>
                            <line x1="65.4994467" y1="259.851767" x2="65.4994467" y2="-2.46383077e-14" id="Stroke-111"></line>
                            <line x1="52.6143096" y1="259.851767" x2="52.6143096" y2="-2.46383077e-14" id="Stroke-114"></line>
                            <line x1="39.7291726" y1="259.851767" x2="39.7291726" y2="-2.46383077e-14" id="Stroke-117"></line>
                            <line x1="26.8440355" y1="259.851767" x2="26.8440355" y2="-2.46383077e-14" id="Stroke-120"></line>
                            <line x1="13.9588985" y1="259.851767" x2="13.9588985" y2="-2.46383077e-14" id="Stroke-123"></line>
                            <line x1="1.07376142" y1="259.851767" x2="1.07376142" y2="-2.46383077e-14" id="Stroke-126"></line>
                        </g>
                    </g>
                </g>
                <g id="logo" transform="translate(54.000000, 52.000000)">
                    <path d="M99.7448894,135.830429 L99.7448894,153.714392 C99.7448894,154.617614 99.0103338,155.348503 98.1071116,155.344042 L42.5689264,155.065151 C33.9296486,155.022374 25.4246116,152.511114 18.3310375,147.586577 C15.5144264,145.631429 12.6855931,143.163151 10.0767597,140.059318 C-0.670443964,127.271411 -0.114536556,112.778707 0.0687967771,109.71154 C0.0687967771,84.2465403 12.7226671,62.4119477 30.7247783,53.1845773 C31.9305005,52.566744 33.3287227,53.589744 33.0804079,54.9213551 C32.1364449,59.9868551 31.6383894,65.2611514 31.6383894,70.6819107 L31.6383894,85.7305218 C31.6383894,96.8380773 38.1636301,106.90104 48.2999264,111.43467 C65.131556,119.073966 81.9572783,126.707355 98.7885005,134.346244 C99.3708894,134.610651 99.7448894,135.191003 99.7448894,135.830429" id="bottomFill" fill="#FEFEFE"></path>
                    <path d="M99.1065,131.772537 C99.1065,132.957278 97.882037,133.746019 96.8032222,133.256315 C80.4211667,125.821333 64.0442037,118.391444 47.661537,110.955852 C37.5252407,106.422426 31,96.359463 31,85.2517037 L31,70.2030926 C31,63.9552963 31.6616296,57.9022407 32.9052407,52.1388519 C33.0195185,51.6090185 33.3951481,51.1739074 33.8985,50.9728519 C38.7380926,49.0411296 43.9046296,48 49.2683519,48 C76.7934074,48 99.1065,75.4148519 99.1065,109.232926 L99.1065,131.772537 Z" id="middleFill" fill="#FEFEFE"></path>
                    <path d="M147.084202,70.5688704 L147.084202,155.23913 L101.955073,155.23913 C101.05511,155.23913 100.325443,154.509667 100.325443,153.6095 L100.325443,109.598704 C100.325443,75.7806296 78.0123505,48.3657778 50.4874986,48.3657778 C45.8693319,48.3657778 41.3974245,49.1374074 37.1544801,50.5849259 C35.9200356,51.0061852 34.7222579,49.8780741 35.056943,48.6173519 C37.8876097,37.9555 42.7316838,28.4176852 49.039369,20.6696111 C59.4323319,7.90003704 73.7903875,0 89.6515727,0 C121.367832,0 147.084202,31.594037 147.084202,70.5688704" id="topFill" fill="#FEFEFE"></path>
                    <path d="M99.7448894,135.830429 L99.7448894,153.714392 C99.7448894,154.617614 99.0103338,155.348503 98.1071116,155.344042 L42.5689264,155.065151 C33.9296486,155.022374 25.4246116,152.511114 18.3310375,147.586577 C15.5144264,145.631429 12.6855931,143.163151 10.0767597,140.059318 C-0.670443964,127.271411 -0.114536556,112.778707 0.0687967771,109.71154 C0.0687967771,84.2465403 12.7226671,62.4119477 30.7247783,53.1845773 C31.9305005,52.566744 33.3287227,53.589744 33.0804079,54.9213551 C32.1364449,59.9868551 31.6383894,65.2611514 31.6383894,70.6819107 L31.6383894,85.7305218 C31.6383894,96.8380773 38.1636301,106.90104 48.2999264,111.43467 C65.131556,119.073966 81.9572783,126.707355 98.7885005,134.346244 C99.3708894,134.610651 99.7448894,135.191003 99.7448894,135.830429 Z" id="bottomOutline" stroke="#231F20" stroke-width="12.2222222"></path>
                    <path d="M99.1065,109.232926 L99.1065,131.772537 C99.1065,132.957278 97.882037,133.746019 96.8032222,133.256315 C80.4211667,125.821333 64.0442037,118.391444 47.661537,110.955852 C37.5252407,106.422426 31,96.359463 31,85.2517037 L31,70.2030926 C31,63.9552963 31.6616296,57.9022407 32.9052407,52.1388519 C33.0195185,51.6090185 33.3951481,51.1739074 33.8985,50.9728519 C38.7380926,49.0411296 43.9046296,48 49.2683519,48 C76.7934074,48 99.1065,75.4148519 99.1065,109.232926 Z" id="middleOutline" stroke="#231F20" stroke-width="12.2222222"></path>
                    <path d="M147.084202,70.5688704 L147.084202,155.23913 L101.955073,155.23913 C101.05511,155.23913 100.325443,154.509667 100.325443,153.6095 L100.325443,109.598704 C100.325443,75.7806296 78.0123505,48.3657778 50.4874986,48.3657778 C45.8693319,48.3657778 41.3974245,49.1374074 37.1544801,50.5849259 C35.9200356,51.0061852 34.7222579,49.8780741 35.056943,48.6173519 C37.8876097,37.9555 42.7316838,28.4176852 49.039369,20.6696111 C59.4323319,7.90003704 73.7903875,0 89.6515727,0 C121.367832,0 147.084202,31.594037 147.084202,70.5688704 Z" id="topOutline" stroke="#231F20" stroke-width="12.2222222"></path>
                </g>
            </g>
        </g>
    </g>
</svg>
