<?xml version="1.0" encoding="UTF-8"?>
<svg width="237px" height="239px" viewBox="0 0 237 239" version="1.1" xmlns="http://www.w3.org/2000/svg" xmlns:xlink="http://www.w3.org/1999/xlink">
    <title>palatte</title>
    <g id="Page-1" stroke="none" stroke-width="1" fill="none" fill-rule="evenodd">
        <g id="iPhone-12-Pro" transform="translate(-40.000000, -497.000000)">
            <g id="palatte" transform="translate(40.000000, 497.206622)">
                <path d="M224.16735,237.173312 L209.76735,237.173312 C202.69815,237.173312 196.96735,231.442512 196.96735,224.373312 L196.96735,209.973312 C196.96735,202.904112 202.69815,197.173312 209.76735,197.173312 L224.16735,197.173312 C231.23655,197.173312 236.96735,202.904112 236.96735,209.973312 L236.96735,224.373312 C236.96735,231.442512 231.23655,237.173312 224.16735,237.173312" id="c25" fill="#E5E6E7"></path>
                <path d="M174.925513,237.173312 L160.525513,237.173312 C153.456313,237.173312 147.725513,231.442512 147.725513,224.373312 L147.725513,209.973312 C147.725513,202.904112 153.456313,197.173312 160.525513,197.173312 L174.925513,197.173312 C181.994713,197.173312 187.725513,202.904112 187.725513,209.973312 L187.725513,224.373312 C187.725513,231.442512 181.994713,237.173312 174.925513,237.173312" id="c24" fill="#6C6E70"></path>
                <path d="M125.683675,237.173312 L111.283675,237.173312 C104.214475,237.173312 98.4836751,231.442512 98.4836751,224.373312 L98.4836751,209.973312 C98.4836751,202.904112 104.214475,197.173312 111.283675,197.173312 L125.683675,197.173312 C132.752875,197.173312 138.483675,202.904112 138.483675,209.973312 L138.483675,224.373312 C138.483675,231.442512 132.752875,237.173312 125.683675,237.173312" id="c23" fill="#9A8478"></path>
                <path d="M76.4418376,237.173312 L62.0418376,237.173312 C54.9726376,237.173312 49.2418376,231.442512 49.2418376,224.373312 L49.2418376,209.973312 C49.2418376,202.904112 54.9726376,197.173312 62.0418376,197.173312 L76.4418376,197.173312 C83.5110376,197.173312 89.2418376,202.904112 89.2418376,209.973312 L89.2418376,224.373312 C89.2418376,231.442512 83.5110376,237.173312 76.4418376,237.173312" id="c22" fill="#AD7E41"></path>
                <path d="M27.2,237.173312 L12.8,237.173312 C5.7308,237.173312 -6.39488462e-14,231.442512 -6.39488462e-14,224.373312 L-6.39488462e-14,209.973312 C-6.39488462e-14,202.904112 5.7308,197.173312 12.8,197.173312 L27.2,197.173312 C34.2692,197.173312 40,202.904112 40,209.973312 L40,224.373312 C40,231.442512 34.2692,237.173312 27.2,237.173312" id="c21" fill="#603813"></path>
                <path d="M224.16735,187.931474 L209.76735,187.931474 C202.69815,187.931474 196.96735,182.200674 196.96735,175.131474 L196.96735,160.731474 C196.96735,153.662274 202.69815,147.931474 209.76735,147.931474 L224.16735,147.931474 C231.23655,147.931474 236.96735,153.662274 236.96735,160.731474 L236.96735,175.131474 C236.96735,182.200674 231.23655,187.931474 224.16735,187.931474" id="c20" fill="#CDAFB3"></path>
                <path d="M174.925513,187.931474 L160.525513,187.931474 C153.456313,187.931474 147.725513,182.200674 147.725513,175.131474 L147.725513,160.731474 C147.725513,153.662274 153.456313,147.931474 160.525513,147.931474 L174.925513,147.931474 C181.994713,147.931474 187.725513,153.662274 187.725513,160.731474 L187.725513,175.131474 C187.725513,182.200674 181.994713,187.931474 174.925513,187.931474" id="c19" fill="#955060"></path>
                <path d="M125.683675,187.931474 L111.283675,187.931474 C104.214475,187.931474 98.4836751,182.200674 98.4836751,175.131474 L98.4836751,160.731474 C98.4836751,153.662274 104.214475,147.931474 111.283675,147.931474 L125.683675,147.931474 C132.752875,147.931474 138.483675,153.662274 138.483675,160.731474 L138.483675,175.131474 C138.483675,182.200674 132.752875,187.931474 125.683675,187.931474" id="c18" fill="#9F7CB7"></path>
                <path d="M76.4418376,187.931474 L62.0418376,187.931474 C54.9726376,187.931474 49.2418376,182.200674 49.2418376,175.131474 L49.2418376,160.731474 C49.2418376,153.662274 54.9726376,147.931474 62.0418376,147.931474 L76.4418376,147.931474 C83.5110376,147.931474 89.2418376,153.662274 89.2418376,160.731474 L89.2418376,175.131474 C89.2418376,182.200674 83.5110376,187.931474 76.4418376,187.931474" id="c17" fill="#F8CCE0"></path>
                <path d="M27.2,187.931474 L12.8,187.931474 C5.7308,187.931474 -6.39488462e-14,182.200674 -6.39488462e-14,175.131474 L-6.39488462e-14,160.731474 C-6.39488462e-14,153.662274 5.7308,147.931474 12.8,147.931474 L27.2,147.931474 C34.2692,147.931474 40,153.662274 40,160.731474 L40,175.131474 C40,182.200674 34.2692,187.931474 27.2,187.931474" id="c16" fill="#EF6AA1"></path>
                <path d="M224.16735,138.689637 L209.76735,138.689637 C202.69815,138.689637 196.96735,132.958837 196.96735,125.889637 L196.96735,111.489637 C196.96735,104.420437 202.69815,98.6896368 209.76735,98.6896368 L224.16735,98.6896368 C231.23655,98.6896368 236.96735,104.420437 236.96735,111.489637 L236.96735,125.889637 C236.96735,132.958837 231.23655,138.689637 224.16735,138.689637" id="c15" fill="#B4B9DD"></path>
                <path d="M174.925513,138.689637 L160.525513,138.689637 C153.456313,138.689637 147.725513,132.958837 147.725513,125.889637 L147.725513,111.489637 C147.725513,104.420437 153.456313,98.6896368 160.525513,98.6896368 L174.925513,98.6896368 C181.994713,98.6896368 187.725513,104.420437 187.725513,111.489637 L187.725513,125.889637 C187.725513,132.958837 181.994713,138.689637 174.925513,138.689637" id="c14" fill="#596CB2"></path>
                <path d="M125.683675,138.689637 L111.283675,138.689637 C104.214475,138.689637 98.4836751,132.958837 98.4836751,125.889637 L98.4836751,111.489637 C98.4836751,104.420437 104.214475,98.6896368 111.283675,98.6896368 L125.683675,98.6896368 C132.752875,98.6896368 138.483675,104.420437 138.483675,111.489637 L138.483675,125.889637 C138.483675,132.958837 132.752875,138.689637 125.683675,138.689637" id="c13" fill="#7AC0EA"></path>
                <path d="M76.4418376,138.689637 L62.0418376,138.689637 C54.9726376,138.689637 49.2418376,132.958837 49.2418376,125.889637 L49.2418376,111.489637 C49.2418376,104.420437 54.9726376,98.6896368 62.0418376,98.6896368 L76.4418376,98.6896368 C83.5110376,98.6896368 89.2418376,104.420437 89.2418376,111.489637 L89.2418376,125.889637 C89.2418376,132.958837 83.5110376,138.689637 76.4418376,138.689637" id="c12" fill="#6280AC"></path>
                <path d="M27.2,138.689637 L12.8,138.689637 C5.7308,138.689637 -6.39488462e-14,132.958837 -6.39488462e-14,125.889637 L-6.39488462e-14,111.489637 C-6.39488462e-14,104.420437 5.7308,98.6896368 12.8,98.6896368 L27.2,98.6896368 C34.2692,98.6896368 40,104.420437 40,111.489637 L40,125.889637 C40,132.958837 34.2692,138.689637 27.2,138.689637" id="c11" fill="#00537F"></path>
                <path d="M224.16735,89.4477993 L209.76735,89.4477993 C202.69815,89.4477993 196.96735,83.7169993 196.96735,76.6477993 L196.96735,62.2477993 C196.96735,55.1785993 202.69815,49.4477993 209.76735,49.4477993 L224.16735,49.4477993 C231.23655,49.4477993 236.96735,55.1785993 236.96735,62.2477993 L236.96735,76.6477993 C236.96735,83.7169993 231.23655,89.4477993 224.16735,89.4477993" id="c10" fill="#C8E7DE"></path>
                <path d="M174.925513,89.4477993 L160.525513,89.4477993 C153.456313,89.4477993 147.725513,83.7169993 147.725513,76.6477993 L147.725513,62.2477993 C147.725513,55.1785993 153.456313,49.4477993 160.525513,49.4477993 L174.925513,49.4477993 C181.994713,49.4477993 187.725513,55.1785993 187.725513,62.2477993 L187.725513,76.6477993 C187.725513,83.7169993 181.994713,89.4477993 174.925513,89.4477993" id="c9" fill="#87CEBC"></path>
                <path d="M125.683675,89.4477993 L111.283675,89.4477993 C104.214475,89.4477993 98.4836751,83.7169993 98.4836751,76.6477993 L98.4836751,62.2477993 C98.4836751,55.1785993 104.214475,49.4477993 111.283675,49.4477993 L125.683675,49.4477993 C132.752875,49.4477993 138.483675,55.1785993 138.483675,62.2477993 L138.483675,76.6477993 C138.483675,83.7169993 132.752875,89.4477993 125.683675,89.4477993" id="c8" fill="#B3D9A5"></path>
                <path d="M76.4418376,89.4477993 L62.0418376,89.4477993 C54.9726376,89.4477993 49.2418376,83.7169993 49.2418376,76.6477993 L49.2418376,62.2477993 C49.2418376,55.1785993 54.9726376,49.4477993 62.0418376,49.4477993 L76.4418376,49.4477993 C83.5110376,49.4477993 89.2418376,55.1785993 89.2418376,62.2477993 L89.2418376,76.6477993 C89.2418376,83.7169993 83.5110376,89.4477993 76.4418376,89.4477993" id="c7" fill="#AACF37"></path>
                <path d="M27.2,89.4477993 L12.8,89.4477993 C5.7308,89.4477993 -6.39488462e-14,83.7169993 -6.39488462e-14,76.6477993 L-6.39488462e-14,62.2477993 C-6.39488462e-14,55.1785993 5.7308,49.4477993 12.8,49.4477993 L27.2,49.4477993 C34.2692,49.4477993 40,55.1785993 40,62.2477993 L40,76.6477993 C40,83.7169993 34.2692,89.4477993 27.2,89.4477993" id="c6" fill="#005E5F"></path>
                <path d="M224.16735,40.2059617 L209.76735,40.2059617 C202.69815,40.2059617 196.96735,34.4751617 196.96735,27.4059617 L196.96735,13.0059617 C196.96735,5.93676174 202.69815,0.205961737 209.76735,0.205961737 L224.16735,0.205961737 C231.23655,0.205961737 236.96735,5.93676174 236.96735,13.0059617 L236.96735,27.4059617 C236.96735,34.4751617 231.23655,40.2059617 224.16735,40.2059617" id="c5" fill="#FFCC03"></path>
                <path d="M174.925513,40.2059617 L160.525513,40.2059617 C153.456313,40.2059617 147.725513,34.4751617 147.725513,27.4059617 L147.725513,13.0059617 C147.725513,5.93676174 153.456313,0.205961737 160.525513,0.205961737 L174.925513,0.205961737 C181.994713,0.205961737 187.725513,5.93676174 187.725513,13.0059617 L187.725513,27.4059617 C187.725513,34.4751617 181.994713,40.2059617 174.925513,40.2059617" id="c4" fill="#F9A436"></path>
                <path d="M125.683675,40.2059617 L111.283675,40.2059617 C104.214475,40.2059617 98.4836751,34.4751617 98.4836751,27.4059617 L98.4836751,13.0059617 C98.4836751,5.93676174 104.214475,0.205961737 111.283675,0.205961737 L125.683675,0.205961737 C132.752875,0.205961737 138.483675,5.93676174 138.483675,13.0059617 L138.483675,27.4059617 C138.483675,34.4751617 132.752875,40.2059617 125.683675,40.2059617" id="c3" fill="#F17A47"></path>
                <path d="M76.4418376,40.2059617 L62.0418376,40.2059617 C54.9726376,40.2059617 49.2418376,34.4751617 49.2418376,27.4059617 L49.2418376,13.0059617 C49.2418376,5.93676174 54.9726376,0.205961737 62.0418376,0.205961737 L76.4418376,0.205961737 C83.5110376,0.205961737 89.2418376,5.93676174 89.2418376,13.0059617 L89.2418376,27.4059617 C89.2418376,34.4751617 83.5110376,40.2059617 76.4418376,40.2059617" id="c2" fill="#F16528"></path>
                <path d="M12.8,40.2059617 C5.7308,40.2059617 -6.39488462e-14,34.4751617 -6.39488462e-14,27.4059617 L-6.39488462e-14,13.0059617 C-6.39488462e-14,5.93676174 5.7308,0.205961737 12.8,0.205961737 L27.2,0.205961737 C34.2692,0.205961737 40,5.93676174 40,13.0059617 L40,27.4059617 C40,34.4751617 34.2692,40.2059617 27.2,40.2059617 L12.8,40.2059617 Z" id="c1" fill="#ED2424"></path>
            </g>
        </g>
    </g>
</svg>